<?xml version="1.0" encoding="utf-8"?>
<!-- Generator: Adobe Illustrator 27.0.1, SVG Export Plug-In . SVG Version: 6.00 Build 0)  -->
<svg version="1.1" id="Capa_1" xmlns="http://www.w3.org/2000/svg" xmlns:xlink="http://www.w3.org/1999/xlink" x="0px" y="0px"
	 viewBox="0 0 1920 48" style="enable-background:new 0 0 1920 48;" xml:space="preserve">
<style type="text/css">
	.st0{fill:#FCEE0A;}
</style>
<path class="st0" d="M944.9,5l3.5,3.5l3.5-3.5H944.9z M1193.3,13.1h-5.6l0,0H1193.3L1193.3,13.1z M1586.7,12.8l-6.6-6.5h-11
	l-13.7,14.2l0,0l0,0l-7.8-7.5h-354.3l-2.8,2.8l4.7,4.7h-9.4l4.7-4.7l-2.8-2.8h-69.8l-4-4l-7.9-7.9l-5.2,5.3l-26.7-0.1h-4.3
	L1059,17.1h-28.6l-6.2-6.2h-63.4l-4.9,4.9l-7.4-7.4l-2.5,2.5H805L794.1,0l-20.4,20.5l-7.7-7.7h-3.3l-1.8,1.8l2.8,2.8H758l2.8-2.8
	l-1.8-1.8h-58V48h1219V12.8H1586.7L1586.7,12.8z M1074,15h-1.5v-1.5h1.5V15z M1074,12h-1.5v-1.5h1.5V12z M1085.5,15h-1.5v-4.5h1.5
	V15z M1091.1,12h-1.5v-1.5h1.5V12z M1501.2,20.5h-4.4v-4.4h4.4V20.5z M1516,20.5h-1.5v-4.4h1.5V20.5z M1526.4,20.5h-1.5v-4.4h1.5
	V20.5z M1528.6,20.5h-1.5v-4.4h1.5V20.5z"/>
<path class="st0" d="M589.9,7l3.5,3.5l0,0l3.5-3.5H589.9z"/>
<path class="st0" d="M593.4,10.5L593.4,10.5l-2.4,2.4H338l-7.5-7H321l-14.3,14.7l-7.7-7.7h-3.3l-1.8,1.8l2.8,2.8H291l2.8-2.8
	l-1.8-1.8h-27l-10,11.6h-43V48h492.3v-9.4l0.1-21.4v-4.4h-98.7l-4.9,3.1L593.4,10.5L593.4,10.5z"/>
<path class="st0" d="M0,37h223.6v11H0L0,37z"/>
<path class="st0" d="M208,24.5h2V37h-2V24.5z"/>
<path class="st0" d="M200,24.5h2V37h-2V24.5z"/>
<path class="st0" d="M191,24.5h2V37h-2V24.5z"/>
<path class="st0" d="M195,24.5h3V37h-3V24.5z"/>
<path class="st0" d="M205,24.5h1V37h-1V24.5z"/>
<path class="st0" d="M189,24.5h1V37h-1V24.5z"/>
<path class="st0" d="M182,24.5h1V37h-1V24.5z"/>
<path class="st0" d="M179,24.5h1V37h-1V24.5z"/>
</svg>
